<svg aria-hidden="true" style="position: absolute; width: 0; height: 0; overflow: hidden;" version="1.1" xmlns="http://www.w3.org/2000/svg" xmlns:xlink="http://www.w3.org/1999/xlink">
<defs>

<symbol id="icon-facebook" viewBox="0 0 16 32">
<path d="M14.88 0.246c0 1.822 0 5.071 0 5.071s-3.742-0.369-4.677 1.058c-0.505 0.788-0.209 3.077-0.246 4.726 1.625 0 3.323 0 4.948 0-0.418 1.92-0.714 3.225-1.022 4.898-1.415 0-3.963 0-3.963 0v15.754c0 0-4.665 0-6.868 0 0-4.862 0-10.523 0-15.692-1.071 0-1.858 0-2.917 0 0-1.822 0-3.138 0-4.96 1.034 0 1.846 0 2.88 0 0.16-3.631 0.209-7.225 2.006-9.046 2.031-2.055 3.963-1.809 9.858-1.809z"></path>
</symbol>

<symbol id="icon-instagram" viewBox="0 0 32 32">
<path d="M27.938 31.754h-23.631c-2.178 0-3.938-1.76-3.938-3.938v-23.631c0-2.178 1.76-3.938 3.938-3.938h23.631c2.178 0 3.938 1.76 3.938 3.938v23.631c0 2.178-1.76 3.938-3.938 3.938zM16.123 9.895c-2.462 0-4.566 1.452-5.538 3.545v0c-0.012 0.025-0.025 0.049-0.025 0.062-0.062 0.135-0.111 0.271-0.16 0.406-0.025 0.062-0.049 0.123-0.074 0.185-0.049 0.135-0.086 0.283-0.123 0.418-0.012 0.062-0.037 0.135-0.049 0.197-0.025 0.148-0.049 0.295-0.074 0.455 0 0.062-0.025 0.123-0.025 0.185-0.025 0.209-0.037 0.431-0.037 0.652 0 3.372 2.732 6.105 6.105 6.105s6.105-2.732 6.105-6.105c0-0.222-0.012-0.443-0.037-0.652 0-0.062-0.025-0.123-0.025-0.185-0.025-0.16-0.049-0.308-0.074-0.455-0.025-0.062-0.037-0.135-0.049-0.197-0.037-0.135-0.074-0.283-0.123-0.418-0.025-0.062-0.049-0.123-0.074-0.185-0.049-0.135-0.098-0.271-0.16-0.406 0-0.012-0.012-0.037-0.025-0.062v0c-0.972-2.092-3.077-3.545-5.538-3.545zM28.332 5.366c0-0.874-0.702-1.575-1.575-1.575h-3.151c-0.874 0-1.575 0.702-1.575 1.575v3.151c0 0.874 0.702 1.575 1.575 1.575h3.151c0.874 0 1.575-0.702 1.575-1.575v-3.151zM28.332 13.44h-2.905c0.222 0.812 0.345 1.674 0.345 2.56 0 5.329-4.32 9.649-9.649 9.649s-9.649-4.32-9.649-9.649c0-0.886 0.123-1.748 0.345-2.56h-2.905v13.194c0 0.874 0.702 1.575 1.575 1.575h21.268c0.874 0 1.575-0.702 1.575-1.575v-13.194z"></path>
</symbol>

<symbol id="icon-magnifying-glass" viewBox="0 0 32 32">
<path d="M30.791 26.631c0.533 0.533 0.853 1.262 0.853 2.080 0 1.618-1.316 2.933-2.933 2.933-0.818 0-1.547-0.338-2.080-0.853v0l-8.587-8.604c-1.742 1.031-3.787 1.636-5.956 1.636-6.489 0-11.733-5.262-11.733-11.733 0-6.489 5.244-11.733 11.733-11.733s11.733 5.244 11.733 11.733c0 2.169-0.604 4.196-1.636 5.956l8.604 8.587zM12.089 3.289c-4.853 0-8.8 3.947-8.8 8.8s3.947 8.8 8.8 8.8c4.853 0 8.8-3.947 8.8-8.8s-3.947-8.8-8.8-8.8z"></path>
</symbol>

<symbol id="icon-pinterest" viewBox="0 0 26 32">
<path d="M11.138 20.738c-0.258 1.034-0.517 2.105-0.788 3.151-0.258 1.046-0.492 2.092-0.874 3.040-0.64 1.588-1.452 3.102-2.523 4.345-0.702 0.812-0.554 0.492-0.763 0.443-0.172-0.037-0.185-0.197-0.209-0.418-0.172-1.255-0.062-2.708 0-4.111 0.074-1.612 0.418-2.942 0.726-4.283 0.603-2.535 1.169-5.022 1.772-7.582 0.037-0.172 0.148-0.455 0.111-0.542-0.271-0.714-0.455-1.354-0.529-2.092-0.086-0.862-0.025-1.662 0.172-2.4 0.332-1.305 1.12-2.449 2.326-2.88 0.775-0.258 1.625-0.135 2.142 0.172 0.529 0.308 0.898 0.812 1.058 1.526 0.185 0.763 0.049 1.662-0.098 2.326-0.32 1.502-0.751 2.634-1.145 4.074-0.197 0.726-0.418 1.465-0.234 2.228 0.16 0.714 0.529 1.206 1.046 1.575 0.517 0.382 1.132 0.591 1.994 0.566 1.514-0.062 2.56-1.022 3.262-1.932 1.12-1.465 1.809-3.434 2.068-5.772 0.074-0.751 0.135-1.625 0.086-2.474-0.111-1.588-0.603-2.855-1.391-3.84-0.751-0.935-1.809-1.686-3.089-2.105s-3.052-0.554-4.615-0.283c-2.855 0.48-4.862 2.105-6.043 4.345-0.628 1.169-1.034 2.523-1.034 4.197 0 1.292 0.32 2.289 0.837 3.077 0.16 0.246 0.394 0.455 0.554 0.738 0.234 0.394-0.025 0.997-0.148 1.428-0.135 0.529-0.148 1.243-0.751 1.255-0.258 0.012-0.578-0.172-0.788-0.295-1.612-0.886-2.585-2.498-2.978-4.603-0.246-1.268-0.246-2.745 0-3.975 0.234-1.194 0.665-2.289 1.145-3.175 1.009-1.858 2.474-3.335 4.258-4.394 1.378-0.812 2.929-1.378 4.812-1.649 0.628-0.098 1.268-0.135 1.969-0.16 2.055-0.098 3.926 0.357 5.329 0.985 1.489 0.665 2.671 1.551 3.668 2.646 1.034 1.132 1.785 2.437 2.265 4.074 0.246 0.849 0.48 1.76 0.48 2.818 0 1.046-0.222 1.982-0.369 2.917-0.591 3.471-2.24 6.326-4.726 7.938-0.603 0.394-1.329 0.763-2.166 0.997-0.812 0.246-1.748 0.418-2.757 0.357-0.972-0.074-1.772-0.332-2.437-0.714s-1.231-0.837-1.625-1.538z"></path>
</symbol>

<symbol id="icon-shopping-cart" viewBox="0 0 32 32">
<path d="M31.52 9.173v0l-4.409 9.778c-0.213 0.48-0.676 0.836-1.244 0.871v0l-12.658 0.836 0.729 2.098h13.796c1.618 0 2.933 1.316 2.933 2.933s-1.316 2.933-2.933 2.933c-1.618 0-2.933-1.316-2.933-2.933h-13.689c0 1.618-1.316 2.933-2.933 2.933s-2.933-1.316-2.933-2.933c0-1.618 1.316-2.933 2.933-2.933h2.649l-5.653-16.142h-3.36c-0.8 0-1.458-0.64-1.458-1.458s0.658-1.476 1.458-1.476h4.409c0.64 0 1.173 0.427 1.387 0.996v0l0.853 2.436h21.707c0.818 0 1.476 0.658 1.476 1.458 0 0.231-0.053 0.427-0.124 0.604zM9.493 10.044l2.702 7.751 12.604-0.853 3.111-6.898h-18.418z"></path>
</symbol>

<symbol id="icon-twitter" viewBox="0 0 32 32">
<path d="M21.551 3.2c2.511-0.049 3.84 0.874 5.108 2.031 1.083-0.098 2.486-0.702 3.311-1.12 0.271-0.148 0.542-0.295 0.812-0.443-0.48 1.28-1.12 2.277-2.105 3.040-0.209 0.172-0.431 0.394-0.702 0.505 0 0 0 0.012 0 0.012 1.403-0.012 2.56-0.64 3.655-0.985 0 0 0 0 0 0.012-0.578 0.911-1.354 1.846-2.191 2.511-0.332 0.271-0.677 0.542-1.009 0.8 0.012 1.489-0.025 2.905-0.295 4.16-1.625 7.249-5.895 12.172-12.665 14.289-2.437 0.751-6.363 1.071-9.145 0.382-1.391-0.345-2.634-0.738-3.803-1.243-0.652-0.283-1.255-0.603-1.834-0.948-0.185-0.111-0.382-0.234-0.566-0.345 0.628 0.012 1.366 0.185 2.068 0.074 0.628-0.098 1.255-0.074 1.846-0.197 1.465-0.32 2.757-0.751 3.877-1.403 0.542-0.32 1.366-0.689 1.748-1.145-0.726 0.012-1.378-0.16-1.92-0.345-2.092-0.738-3.311-2.105-4.098-4.135 0.628 0.062 2.462 0.234 2.88-0.135-0.8-0.037-1.563-0.505-2.105-0.849-1.686-1.046-3.065-2.806-3.052-5.526 0.222 0.098 0.443 0.209 0.665 0.308 0.418 0.185 0.849 0.283 1.354 0.382 0.222 0.049 0.64 0.172 0.886 0.074-0.012 0-0.025 0-0.037 0-0.32-0.369-0.849-0.628-1.182-1.034-1.071-1.342-2.092-3.409-1.452-5.858 0.172-0.628 0.431-1.182 0.702-1.686 0.012 0 0.025 0.012 0.025 0.012 0.135 0.271 0.406 0.455 0.591 0.677 0.554 0.689 1.231 1.305 1.92 1.846 2.363 1.846 4.492 2.978 7.902 3.815 0.862 0.209 1.871 0.382 2.905 0.382-0.295-0.849-0.197-2.215 0.025-3.040 0.578-2.055 1.834-3.545 3.668-4.332 0.431-0.197 0.923-0.332 1.428-0.443 0.271-0.037 0.529-0.062 0.788-0.098z"></path>
</symbol>

</defs>
</svg>
